<svg width="1004" height="496" viewBox="0 0 1004 496" fill="none" xmlns="http://www.w3.org/2000/svg">
<g opacity="0.29827">
<path d="M1008.08 163.448L443.182 -356.858V-747.19L28.1096 -770C24.9043 -762.456 4.36709 -740.714 7.57176 -728.596C11.43 -714.102 30.8387 -718.735 36.4776 -709.409C43.0661 -698.42 31.7291 -653.749 28.3457 -640.86C21.8759 -616.445 7.09676 -596.665 2.82235 -572.25C-4.35982 -531.263 10.1824 -534.53 37.7242 -508.927C84.141 -465.742 46.9244 -420.952 58.6176 -370.223C68.1146 -328.878 109.605 -307.554 124.8 -266.211C136.553 -234.37 152.697 -226.233 177.746 -202.947C177.153 -217.084 164.51 -258.785 188.253 -255.102C211.817 -251.478 202.736 -216.669 207.247 -202.115C211.045 -189.997 237.933 -165.761 215.616 -154.593C208.196 -150.91 187.066 -165.582 178.577 -169.503C184.572 -150.791 180.774 -131.367 190.271 -113.487C201.608 -92.162 213.835 -100.359 228.853 -88.7754C244.344 -76.8355 242.683 -63.1137 235.797 -45.0554C228.615 -26.2247 221.196 -29.1352 232.592 -6.44342C240.843 9.95119 254.85 30.7421 266.9 43.2164C273.904 50.4634 281.502 52.1267 288.506 61.3932C294.323 69.1155 292.067 79.2142 299.012 86.1638C310.883 98.1037 331.006 98.282 340.384 113.904C350.831 131.309 338.96 144.437 369.706 142.833C371.309 177.643 377.897 209.185 377.541 243.994C394.695 250.825 422.414 242.687 440.399 239.063C458.266 263.18 481.355 246.429 501.774 259.558C510.678 265.26 508.837 279.517 514.239 284.506C525.339 294.723 533.529 288.308 547.301 291.872C557.51 294.486 565.404 301.97 575.138 304.703C584.338 307.257 599.475 301.258 606.301 309.396C614.492 319.138 600.78 336.958 613.127 344.799C623.395 351.333 638.115 335.77 648.088 338.027C659.721 340.7 693.079 371.174 701.271 381.212C710.59 392.677 719.969 414.062 725.25 428.793C733.501 451.841 732.373 463.127 749.408 479.998C760.27 490.75 749.942 491.522 767.63 494.67C779.204 496.749 794.518 488.374 806.212 487.067C830.549 484.394 855.122 489.027 879.102 484.453C901.421 480.176 922.729 473.166 945.64 469.899C965.465 467.048 1000.37 469.246 1017.94 459.801C1036.99 449.643 1038.71 426.654 1011.17 430.932C1008.97 416.26 1018.77 396.003 1007.85 385.847C1023.04 365.056 1028.56 350.384 1030.93 324.959C1032 313.792 1032.48 301.436 1038 292.05C1043.4 282.783 1058.59 277.259 1061.56 269.299C1066.13 256.943 1058.83 251.419 1053.25 244.528C1049.69 240.073 1039.54 242.212 1036.63 238.291C1031.23 231.103 1036.57 223.678 1033.6 216.431C1024.94 195.462 1014.61 187.205 1008.08 163.444C1008.26 167.424 1008.44 171.463 1008.2 175.384" stroke="white" stroke-width="2" stroke-linecap="round" stroke-linejoin="round"/>
</g>
<circle cx="729.5" cy="84.5" r="6.5" fill="#4AF6CD"/>
<g filter="url(#filter0_dd)">
<circle cx="573.5" cy="319.5" r="6.5" fill="#4AF6CD"/>
</g>
<circle cx="661" cy="360" r="3" fill="#4AF6CD"/>
<circle cx="725" cy="468" r="3" fill="#4AF6CD"/>
<circle cx="368" cy="225" r="3" fill="#4AF6CD"/>
<path d="M729.114 83.9394C720.546 107.321 740.614 115.526 756.675 130.807C761.434 135.336 761.888 142.817 756.879 147.342C746.107 157.074 705.264 142.917 707.854 155.745C710.53 168.994 745.061 187.531 746.618 188.799C760.284 199.932 764.735 228.174 757.208 243.658C751.852 254.676 716.342 250.962 705.172 247.293C632.024 223.266 664.985 226.131 582.817 218.67C576.527 218.099 569.935 217.806 563.894 219.65C557.671 221.549 557.869 229.339 559.957 233.55C566.876 247.506 597.849 271.178 589.514 289.523C586.956 295.152 580.963 298.707 578.264 304.27C576.151 308.627 576.385 313.772 575.445 318.523" stroke="white" stroke-width="2"/>
<path d="M730 86C704.569 111.431 676.548 138.109 665.611 173.389C658.067 197.724 657.413 227.798 666.444 251.778C678.977 285.053 701.313 310.581 731.278 329.333C752.83 342.821 770.464 357.055 785.833 377.333C794.97 389.389 801.887 400.587 802 416.111C802.09 428.383 805.006 444.992 799.556 456.389C797.644 460.385 793.291 461.519 789.333 462.222C776.466 464.51 763.882 459 750.833 459C743.99 459 738.114 459.721 732 462.778C729.953 463.801 729.825 465.539 727.5 466.056C726.331 466.315 723.426 468.147 723 469" stroke="white" stroke-width="2" stroke-linecap="round" stroke-linejoin="round"/>
<path d="M725 89C719.322 90.3205 715.484 92.7586 711.278 96.7778C705.031 102.747 697.295 108.594 692.667 116C685.668 127.198 685.108 146.322 688.222 158.667C693.285 178.736 702.848 192.395 717 207.333C733.085 224.312 754.871 238.042 767.556 257.889C779.948 277.279 782.047 302.415 771.111 322.667C763.939 335.949 751.206 339.503 737.333 342C726.408 343.967 715.496 346.107 704.611 348C696.743 349.368 688.967 352.715 681.111 354.5C674.268 356.055 666.794 359 660 359" stroke="white" stroke-width="2" stroke-linecap="round" stroke-linejoin="round"/>
<path d="M726 85C709.922 99.4523 693.778 115.389 675.167 126.556C653.772 139.392 622.381 145.972 600 131.444C591.52 125.94 587.29 116.165 580.833 108.722C571.566 98.0389 557.555 90.4859 543.444 88.9444C511.186 85.4204 484.247 107.086 471.389 134.944C461.419 156.546 467.365 175.347 469.222 197.444C469.956 206.173 470.769 210.559 462.222 214.222C456.473 216.686 449.841 218.06 443.611 216.444C437.358 214.823 435.297 211.07 431.889 206.444C429.775 203.576 428.073 198 424 198C421.5 198 419 198 416.5 198C407.184 198 397.978 206.215 391.444 212.556C387.795 216.097 383.646 219.196 379.5 221.5C376.729 223.04 371.175 226 368 226" stroke="white" stroke-width="2" stroke-linecap="round" stroke-linejoin="round"/>
<path d="M538.414 443.784C539.15 443.784 539.779 443.891 540.302 444.104C540.824 444.307 541.331 444.627 541.822 445.064L540.99 445.992C540.574 445.661 540.163 445.421 539.758 445.272C539.363 445.112 538.936 445.032 538.478 445.032C537.902 445.032 537.427 445.165 537.054 445.432C536.68 445.699 536.494 446.088 536.494 446.6C536.494 446.92 536.558 447.192 536.686 447.416C536.814 447.629 537.048 447.827 537.39 448.008C537.742 448.189 538.248 448.381 538.91 448.584C539.603 448.797 540.179 449.027 540.638 449.272C541.096 449.517 541.464 449.859 541.742 450.296C542.03 450.723 542.174 451.267 542.174 451.928C542.174 452.568 542.014 453.133 541.694 453.624C541.384 454.115 540.931 454.499 540.334 454.776C539.747 455.053 539.048 455.192 538.238 455.192C536.712 455.192 535.464 454.717 534.494 453.768L535.326 452.84C535.774 453.203 536.227 453.48 536.686 453.672C537.144 453.853 537.656 453.944 538.222 453.944C538.904 453.944 539.47 453.779 539.918 453.448C540.366 453.107 540.59 452.616 540.59 451.976C540.59 451.613 540.52 451.315 540.382 451.08C540.243 450.835 540.003 450.616 539.662 450.424C539.331 450.232 538.846 450.04 538.206 449.848C537.075 449.507 536.248 449.096 535.726 448.616C535.203 448.136 534.942 447.485 534.942 446.664C534.942 446.109 535.086 445.613 535.374 445.176C535.672 444.739 536.083 444.397 536.606 444.152C537.139 443.907 537.742 443.784 538.414 443.784ZM547.501 446.376C548.685 446.376 549.602 446.771 550.253 447.56C550.914 448.349 551.245 449.421 551.245 450.776C551.245 451.651 551.095 452.424 550.797 453.096C550.498 453.757 550.066 454.275 549.501 454.648C548.935 455.011 548.263 455.192 547.485 455.192C546.301 455.192 545.378 454.797 544.717 454.008C544.055 453.219 543.725 452.147 543.725 450.792C543.725 449.917 543.874 449.149 544.173 448.488C544.471 447.816 544.903 447.299 545.469 446.936C546.034 446.563 546.711 446.376 547.501 446.376ZM547.501 447.56C546.039 447.56 545.309 448.637 545.309 450.792C545.309 452.936 546.034 454.008 547.485 454.008C548.935 454.008 549.661 452.931 549.661 450.776C549.661 448.632 548.941 447.56 547.501 447.56ZM559.948 455H558.684L558.572 453.688C558.252 454.211 557.884 454.595 557.468 454.84C557.052 455.075 556.546 455.192 555.948 455.192C555.212 455.192 554.636 454.968 554.22 454.52C553.804 454.072 553.596 453.437 553.596 452.616V446.568H555.068V452.456C555.068 453.032 555.17 453.443 555.372 453.688C555.575 453.923 555.906 454.04 556.364 454.04C557.186 454.04 557.89 453.555 558.476 452.584V446.568H559.948V455ZM567.245 454.616C566.69 455 566.061 455.192 565.357 455.192C564.642 455.192 564.082 454.989 563.677 454.584C563.282 454.168 563.085 453.571 563.085 452.792V447.704H561.613V446.568H563.085V444.664L564.557 444.488V446.568H566.557L566.397 447.704H564.557V452.728C564.557 453.165 564.631 453.485 564.781 453.688C564.941 453.88 565.202 453.976 565.565 453.976C565.895 453.976 566.269 453.864 566.685 453.64L567.245 454.616ZM572.738 446.376C573.506 446.376 574.103 446.605 574.53 447.064C574.967 447.523 575.186 448.152 575.186 448.952V455H573.714V449.16C573.714 448.563 573.597 448.141 573.362 447.896C573.138 447.651 572.807 447.528 572.37 447.528C571.933 447.528 571.543 447.656 571.202 447.912C570.861 448.168 570.541 448.531 570.242 449V455H568.77V443.192L570.242 443.032V447.736C570.903 446.829 571.735 446.376 572.738 446.376ZM585.179 443.784C585.915 443.784 586.545 443.891 587.067 444.104C587.59 444.307 588.097 444.627 588.587 445.064L587.755 445.992C587.339 445.661 586.929 445.421 586.523 445.272C586.129 445.112 585.702 445.032 585.243 445.032C584.667 445.032 584.193 445.165 583.819 445.432C583.446 445.699 583.259 446.088 583.259 446.6C583.259 446.92 583.323 447.192 583.451 447.416C583.579 447.629 583.814 447.827 584.155 448.008C584.507 448.189 585.014 448.381 585.675 448.584C586.369 448.797 586.945 449.027 587.403 449.272C587.862 449.517 588.23 449.859 588.507 450.296C588.795 450.723 588.939 451.267 588.939 451.928C588.939 452.568 588.779 453.133 588.459 453.624C588.15 454.115 587.697 454.499 587.099 454.776C586.513 455.053 585.814 455.192 585.003 455.192C583.478 455.192 582.23 454.717 581.259 453.768L582.091 452.84C582.539 453.203 582.993 453.48 583.451 453.672C583.91 453.853 584.422 453.944 584.987 453.944C585.67 453.944 586.235 453.779 586.683 453.448C587.131 453.107 587.355 452.616 587.355 451.976C587.355 451.613 587.286 451.315 587.147 451.08C587.009 450.835 586.769 450.616 586.427 450.424C586.097 450.232 585.611 450.04 584.971 449.848C583.841 449.507 583.014 449.096 582.491 448.616C581.969 448.136 581.707 447.485 581.707 446.664C581.707 446.109 581.851 445.613 582.139 445.176C582.438 444.739 582.849 444.397 583.371 444.152C583.905 443.907 584.507 443.784 585.179 443.784ZM595.066 446.376C595.834 446.376 596.431 446.605 596.858 447.064C597.295 447.523 597.514 448.152 597.514 448.952V455H596.042V449.16C596.042 448.563 595.925 448.141 595.69 447.896C595.466 447.651 595.135 447.528 594.698 447.528C594.261 447.528 593.871 447.656 593.53 447.912C593.189 448.168 592.869 448.531 592.57 449V455H591.098V443.192L592.57 443.032V447.736C593.231 446.829 594.063 446.376 595.066 446.376ZM603.641 446.376C604.825 446.376 605.742 446.771 606.393 447.56C607.054 448.349 607.385 449.421 607.385 450.776C607.385 451.651 607.236 452.424 606.937 453.096C606.638 453.757 606.206 454.275 605.641 454.648C605.076 455.011 604.404 455.192 603.625 455.192C602.441 455.192 601.518 454.797 600.857 454.008C600.196 453.219 599.865 452.147 599.865 450.792C599.865 449.917 600.014 449.149 600.313 448.488C600.612 447.816 601.044 447.299 601.609 446.936C602.174 446.563 602.852 446.376 603.641 446.376ZM603.641 447.56C602.18 447.56 601.449 448.637 601.449 450.792C601.449 452.936 602.174 454.008 603.625 454.008C605.076 454.008 605.801 452.931 605.801 450.776C605.801 448.632 605.081 447.56 603.641 447.56ZM613.481 446.376C613.78 446.376 614.057 446.408 614.313 446.472L614.041 447.912C613.785 447.848 613.54 447.816 613.305 447.816C612.782 447.816 612.361 448.008 612.041 448.392C611.721 448.776 611.47 449.373 611.289 450.184V455H609.817V446.568H611.081L611.225 448.28C611.449 447.651 611.753 447.176 612.137 446.856C612.521 446.536 612.969 446.376 613.481 446.376ZM621.872 450.536C621.872 450.781 621.862 451.032 621.84 451.288H616.464C616.528 452.216 616.763 452.899 617.168 453.336C617.574 453.773 618.096 453.992 618.736 453.992C619.142 453.992 619.515 453.933 619.856 453.816C620.198 453.699 620.555 453.512 620.928 453.256L621.568 454.136C620.672 454.84 619.691 455.192 618.624 455.192C617.451 455.192 616.534 454.808 615.872 454.04C615.222 453.272 614.896 452.216 614.896 450.872C614.896 449.997 615.035 449.224 615.312 448.552C615.6 447.869 616.006 447.336 616.528 446.952C617.062 446.568 617.686 446.376 618.4 446.376C619.52 446.376 620.379 446.744 620.976 447.48C621.574 448.216 621.872 449.235 621.872 450.536ZM620.416 450.104C620.416 449.272 620.251 448.637 619.92 448.2C619.59 447.763 619.094 447.544 618.432 447.544C617.227 447.544 616.571 448.429 616.464 450.2H620.416V450.104ZM630.41 442.184V456.568H630.058V442.184H630.41ZM649.237 455H647.765L647.381 450.024C647.221 448.072 647.131 446.573 647.109 445.528L644.725 453.752H643.301L640.789 445.512C640.789 446.845 640.72 448.387 640.581 450.136L640.213 455H638.773L639.685 443.976H641.733L644.053 451.992L646.261 443.976H648.325L649.237 455ZM657.434 453.032C657.434 453.373 657.493 453.629 657.61 453.8C657.728 453.96 657.904 454.083 658.138 454.168L657.802 455.192C657.365 455.139 657.013 455.016 656.746 454.824C656.48 454.632 656.282 454.333 656.154 453.928C655.589 454.771 654.752 455.192 653.642 455.192C652.81 455.192 652.154 454.957 651.674 454.488C651.194 454.019 650.954 453.405 650.954 452.648C650.954 451.752 651.274 451.064 651.914 450.584C652.565 450.104 653.482 449.864 654.666 449.864H655.962V449.24C655.962 448.643 655.818 448.216 655.53 447.96C655.242 447.704 654.8 447.576 654.202 447.576C653.584 447.576 652.826 447.725 651.93 448.024L651.562 446.952C652.608 446.568 653.578 446.376 654.474 446.376C655.466 446.376 656.208 446.621 656.698 447.112C657.189 447.592 657.434 448.28 657.434 449.176V453.032ZM653.978 454.088C654.821 454.088 655.482 453.651 655.962 452.776V450.84H654.858C653.301 450.84 652.522 451.416 652.522 452.568C652.522 453.069 652.645 453.448 652.89 453.704C653.136 453.96 653.498 454.088 653.978 454.088ZM661.981 455.192C661.437 455.192 661.005 455.032 660.685 454.712C660.376 454.381 660.221 453.923 660.221 453.336V443.176L661.693 443V453.304C661.693 453.539 661.731 453.709 661.805 453.816C661.891 453.923 662.029 453.976 662.221 453.976C662.424 453.976 662.605 453.944 662.765 453.88L663.149 454.904C662.797 455.096 662.408 455.192 661.981 455.192ZM666.461 446.568V455H664.989V446.568H666.461ZM665.709 442.52C666.018 442.52 666.269 442.616 666.461 442.808C666.653 443 666.749 443.24 666.749 443.528C666.749 443.816 666.653 444.056 666.461 444.248C666.269 444.429 666.018 444.52 665.709 444.52C665.41 444.52 665.165 444.429 664.973 444.248C664.781 444.056 664.685 443.816 664.685 443.528C664.685 443.24 664.781 443 664.973 442.808C665.165 442.616 665.41 442.52 665.709 442.52ZM673.36 446.376C674.32 446.376 675.083 446.765 675.648 447.544C676.214 448.312 676.496 449.389 676.496 450.776C676.496 451.651 676.363 452.424 676.096 453.096C675.83 453.757 675.446 454.275 674.944 454.648C674.443 455.011 673.856 455.192 673.184 455.192C672.299 455.192 671.552 454.819 670.944 454.072L670.8 455H669.504V443.176L670.976 443V447.624C671.584 446.792 672.379 446.376 673.36 446.376ZM672.832 454.024C673.483 454.024 673.99 453.763 674.352 453.24C674.726 452.707 674.912 451.885 674.912 450.776C674.912 449.635 674.742 448.813 674.4 448.312C674.059 447.8 673.574 447.544 672.944 447.544C672.198 447.544 671.542 447.981 670.976 448.856V452.888C671.2 453.24 671.472 453.517 671.792 453.72C672.123 453.923 672.47 454.024 672.832 454.024ZM685.276 455H684.012L683.9 453.688C683.58 454.211 683.212 454.595 682.796 454.84C682.38 455.075 681.874 455.192 681.276 455.192C680.54 455.192 679.964 454.968 679.548 454.52C679.132 454.072 678.924 453.437 678.924 452.616V446.568H680.396V452.456C680.396 453.032 680.498 453.443 680.7 453.688C680.903 453.923 681.234 454.04 681.692 454.04C682.514 454.04 683.218 453.555 683.804 452.584V446.568H685.276V455ZM688.701 452.968C689.021 452.968 689.288 453.075 689.501 453.288C689.714 453.501 689.821 453.763 689.821 454.072C689.821 454.403 689.725 454.781 689.533 455.208L688.461 457.656H687.405L688.045 455C687.906 454.893 687.794 454.76 687.709 454.6C687.634 454.44 687.597 454.264 687.597 454.072C687.597 453.763 687.704 453.501 687.917 453.288C688.13 453.075 688.392 452.968 688.701 452.968ZM700.331 443.784C700.992 443.784 701.547 443.869 701.995 444.04C702.454 444.211 702.918 444.488 703.387 444.872L702.555 445.848C701.883 445.304 701.174 445.032 700.427 445.032C699.51 445.032 698.768 445.384 698.203 446.088C697.648 446.792 697.371 447.923 697.371 449.48C697.371 450.995 697.648 452.115 698.203 452.84C698.758 453.555 699.494 453.912 700.411 453.912C700.88 453.912 701.291 453.832 701.643 453.672C701.995 453.512 702.368 453.288 702.763 453L703.515 453.96C703.174 454.312 702.736 454.605 702.203 454.84C701.67 455.075 701.056 455.192 700.363 455.192C699.467 455.192 698.667 454.973 697.963 454.536C697.27 454.088 696.726 453.437 696.331 452.584C695.947 451.72 695.755 450.685 695.755 449.48C695.755 448.275 695.958 447.245 696.363 446.392C696.768 445.528 697.318 444.877 698.011 444.44C698.704 444.003 699.478 443.784 700.331 443.784ZM711.3 455L710.468 452.232H706.292L705.46 455H703.924L707.46 443.976H709.38L712.9 455H711.3ZM706.66 451H710.1L708.388 445.24L706.66 451Z" fill="white"/>
<path d="M491.021 366.976L490.845 368.192H486.573V371.792H490.285V373.008H486.573V376.784H491.149V378H485.053V366.976H491.021ZM499.028 376.032C499.028 376.373 499.087 376.629 499.204 376.8C499.321 376.96 499.497 377.083 499.732 377.168L499.396 378.192C498.959 378.139 498.607 378.016 498.34 377.824C498.073 377.632 497.876 377.333 497.748 376.928C497.183 377.771 496.345 378.192 495.236 378.192C494.404 378.192 493.748 377.957 493.268 377.488C492.788 377.019 492.548 376.405 492.548 375.648C492.548 374.752 492.868 374.064 493.508 373.584C494.159 373.104 495.076 372.864 496.26 372.864H497.556V372.24C497.556 371.643 497.412 371.216 497.124 370.96C496.836 370.704 496.393 370.576 495.796 370.576C495.177 370.576 494.42 370.725 493.524 371.024L493.156 369.952C494.201 369.568 495.172 369.376 496.068 369.376C497.06 369.376 497.801 369.621 498.292 370.112C498.783 370.592 499.028 371.28 499.028 372.176V376.032ZM495.572 377.088C496.415 377.088 497.076 376.651 497.556 375.776V373.84H496.452C494.895 373.84 494.116 374.416 494.116 375.568C494.116 376.069 494.239 376.448 494.484 376.704C494.729 376.96 495.092 377.088 495.572 377.088ZM504.183 369.376C504.759 369.376 505.276 369.456 505.735 369.616C506.194 369.776 506.631 370.016 507.047 370.336L506.423 371.264C506.039 371.019 505.671 370.837 505.319 370.72C504.978 370.603 504.615 370.544 504.231 370.544C503.751 370.544 503.372 370.645 503.095 370.848C502.818 371.04 502.679 371.307 502.679 371.648C502.679 371.989 502.807 372.256 503.063 372.448C503.33 372.64 503.804 372.827 504.487 373.008C505.426 373.243 506.124 373.563 506.583 373.968C507.052 374.373 507.287 374.928 507.287 375.632C507.287 376.464 506.962 377.099 506.311 377.536C505.671 377.973 504.887 378.192 503.959 378.192C502.679 378.192 501.618 377.824 500.775 377.088L501.559 376.192C502.274 376.736 503.063 377.008 503.927 377.008C504.482 377.008 504.919 376.896 505.239 376.672C505.57 376.437 505.735 376.123 505.735 375.728C505.735 375.44 505.676 375.211 505.559 375.04C505.442 374.859 505.239 374.704 504.951 374.576C504.663 374.437 504.242 374.293 503.687 374.144C502.791 373.909 502.14 373.595 501.735 373.2C501.34 372.805 501.143 372.304 501.143 371.696C501.143 371.259 501.271 370.864 501.527 370.512C501.794 370.149 502.156 369.872 502.615 369.68C503.084 369.477 503.607 369.376 504.183 369.376ZM513.62 377.616C513.065 378 512.436 378.192 511.732 378.192C511.017 378.192 510.457 377.989 510.052 377.584C509.657 377.168 509.46 376.571 509.46 375.792V370.704H507.988V369.568H509.46V367.664L510.932 367.488V369.568H512.932L512.772 370.704H510.932V375.728C510.932 376.165 511.006 376.485 511.156 376.688C511.316 376.88 511.577 376.976 511.94 376.976C512.27 376.976 512.644 376.864 513.06 376.64L513.62 377.616ZM522.179 366.784C522.915 366.784 523.545 366.891 524.067 367.104C524.59 367.307 525.097 367.627 525.587 368.064L524.755 368.992C524.339 368.661 523.929 368.421 523.523 368.272C523.129 368.112 522.702 368.032 522.243 368.032C521.667 368.032 521.193 368.165 520.819 368.432C520.446 368.699 520.259 369.088 520.259 369.6C520.259 369.92 520.323 370.192 520.451 370.416C520.579 370.629 520.814 370.827 521.155 371.008C521.507 371.189 522.014 371.381 522.675 371.584C523.369 371.797 523.945 372.027 524.403 372.272C524.862 372.517 525.23 372.859 525.507 373.296C525.795 373.723 525.939 374.267 525.939 374.928C525.939 375.568 525.779 376.133 525.459 376.624C525.15 377.115 524.697 377.499 524.099 377.776C523.513 378.053 522.814 378.192 522.003 378.192C520.478 378.192 519.23 377.717 518.259 376.768L519.091 375.84C519.539 376.203 519.993 376.48 520.451 376.672C520.91 376.853 521.422 376.944 521.987 376.944C522.67 376.944 523.235 376.779 523.683 376.448C524.131 376.107 524.355 375.616 524.355 374.976C524.355 374.613 524.286 374.315 524.147 374.08C524.009 373.835 523.769 373.616 523.427 373.424C523.097 373.232 522.611 373.04 521.971 372.848C520.841 372.507 520.014 372.096 519.491 371.616C518.969 371.136 518.707 370.485 518.707 369.664C518.707 369.109 518.851 368.613 519.139 368.176C519.438 367.739 519.849 367.397 520.371 367.152C520.905 366.907 521.507 366.784 522.179 366.784ZM532.066 369.376C532.834 369.376 533.431 369.605 533.858 370.064C534.295 370.523 534.514 371.152 534.514 371.952V378H533.042V372.16C533.042 371.563 532.925 371.141 532.69 370.896C532.466 370.651 532.135 370.528 531.698 370.528C531.261 370.528 530.871 370.656 530.53 370.912C530.189 371.168 529.869 371.531 529.57 372V378H528.098V366.192L529.57 366.032V370.736C530.231 369.829 531.063 369.376 532.066 369.376ZM540.641 369.376C541.825 369.376 542.742 369.771 543.393 370.56C544.054 371.349 544.385 372.421 544.385 373.776C544.385 374.651 544.236 375.424 543.937 376.096C543.638 376.757 543.206 377.275 542.641 377.648C542.076 378.011 541.404 378.192 540.625 378.192C539.441 378.192 538.518 377.797 537.857 377.008C537.196 376.219 536.865 375.147 536.865 373.792C536.865 372.917 537.014 372.149 537.313 371.488C537.612 370.816 538.044 370.299 538.609 369.936C539.174 369.563 539.852 369.376 540.641 369.376ZM540.641 370.56C539.18 370.56 538.449 371.637 538.449 373.792C538.449 375.936 539.174 377.008 540.625 377.008C542.076 377.008 542.801 375.931 542.801 373.776C542.801 371.632 542.081 370.56 540.641 370.56ZM550.481 369.376C550.78 369.376 551.057 369.408 551.313 369.472L551.041 370.912C550.785 370.848 550.54 370.816 550.305 370.816C549.782 370.816 549.361 371.008 549.041 371.392C548.721 371.776 548.47 372.373 548.289 373.184V378H546.817V369.568H548.081L548.225 371.28C548.449 370.651 548.753 370.176 549.137 369.856C549.521 369.536 549.969 369.376 550.481 369.376ZM558.872 373.536C558.872 373.781 558.862 374.032 558.84 374.288H553.464C553.528 375.216 553.763 375.899 554.168 376.336C554.574 376.773 555.096 376.992 555.736 376.992C556.142 376.992 556.515 376.933 556.856 376.816C557.198 376.699 557.555 376.512 557.928 376.256L558.568 377.136C557.672 377.84 556.691 378.192 555.624 378.192C554.451 378.192 553.534 377.808 552.872 377.04C552.222 376.272 551.896 375.216 551.896 373.872C551.896 372.997 552.035 372.224 552.312 371.552C552.6 370.869 553.006 370.336 553.528 369.952C554.062 369.568 554.686 369.376 555.4 369.376C556.52 369.376 557.379 369.744 557.976 370.48C558.574 371.216 558.872 372.235 558.872 373.536ZM557.416 373.104C557.416 372.272 557.251 371.637 556.92 371.2C556.59 370.763 556.094 370.544 555.432 370.544C554.227 370.544 553.571 371.429 553.464 373.2H557.416V373.104ZM567.41 365.184V379.568H567.058V365.184H567.41ZM586.237 378H584.765L584.381 373.024C584.221 371.072 584.131 369.573 584.109 368.528L581.725 376.752H580.301L577.789 368.512C577.789 369.845 577.72 371.387 577.581 373.136L577.213 378H575.773L576.685 366.976H578.733L581.053 374.992L583.261 366.976H585.325L586.237 378ZM594.434 376.032C594.434 376.373 594.493 376.629 594.61 376.8C594.728 376.96 594.904 377.083 595.138 377.168L594.802 378.192C594.365 378.139 594.013 378.016 593.746 377.824C593.48 377.632 593.282 377.333 593.154 376.928C592.589 377.771 591.752 378.192 590.642 378.192C589.81 378.192 589.154 377.957 588.674 377.488C588.194 377.019 587.954 376.405 587.954 375.648C587.954 374.752 588.274 374.064 588.914 373.584C589.565 373.104 590.482 372.864 591.666 372.864H592.962V372.24C592.962 371.643 592.818 371.216 592.53 370.96C592.242 370.704 591.8 370.576 591.202 370.576C590.584 370.576 589.826 370.725 588.93 371.024L588.562 369.952C589.608 369.568 590.578 369.376 591.474 369.376C592.466 369.376 593.208 369.621 593.698 370.112C594.189 370.592 594.434 371.28 594.434 372.176V376.032ZM590.978 377.088C591.821 377.088 592.482 376.651 592.962 375.776V373.84H591.858C590.301 373.84 589.522 374.416 589.522 375.568C589.522 376.069 589.645 376.448 589.89 376.704C590.136 376.96 590.498 377.088 590.978 377.088ZM598.981 378.192C598.437 378.192 598.005 378.032 597.685 377.712C597.376 377.381 597.221 376.923 597.221 376.336V366.176L598.693 366V376.304C598.693 376.539 598.731 376.709 598.805 376.816C598.891 376.923 599.029 376.976 599.221 376.976C599.424 376.976 599.605 376.944 599.765 376.88L600.149 377.904C599.797 378.096 599.408 378.192 598.981 378.192ZM603.461 369.568V378H601.989V369.568H603.461ZM602.709 365.52C603.018 365.52 603.269 365.616 603.461 365.808C603.653 366 603.749 366.24 603.749 366.528C603.749 366.816 603.653 367.056 603.461 367.248C603.269 367.429 603.018 367.52 602.709 367.52C602.41 367.52 602.165 367.429 601.973 367.248C601.781 367.056 601.685 366.816 601.685 366.528C601.685 366.24 601.781 366 601.973 365.808C602.165 365.616 602.41 365.52 602.709 365.52ZM610.36 369.376C611.32 369.376 612.083 369.765 612.648 370.544C613.214 371.312 613.496 372.389 613.496 373.776C613.496 374.651 613.363 375.424 613.096 376.096C612.83 376.757 612.446 377.275 611.944 377.648C611.443 378.011 610.856 378.192 610.184 378.192C609.299 378.192 608.552 377.819 607.944 377.072L607.8 378H606.504V366.176L607.976 366V370.624C608.584 369.792 609.379 369.376 610.36 369.376ZM609.832 377.024C610.483 377.024 610.99 376.763 611.352 376.24C611.726 375.707 611.912 374.885 611.912 373.776C611.912 372.635 611.742 371.813 611.4 371.312C611.059 370.8 610.574 370.544 609.944 370.544C609.198 370.544 608.542 370.981 607.976 371.856V375.888C608.2 376.24 608.472 376.517 608.792 376.72C609.123 376.923 609.47 377.024 609.832 377.024ZM622.276 378H621.012L620.9 376.688C620.58 377.211 620.212 377.595 619.796 377.84C619.38 378.075 618.874 378.192 618.276 378.192C617.54 378.192 616.964 377.968 616.548 377.52C616.132 377.072 615.924 376.437 615.924 375.616V369.568H617.396V375.456C617.396 376.032 617.498 376.443 617.7 376.688C617.903 376.923 618.234 377.04 618.692 377.04C619.514 377.04 620.218 376.555 620.804 375.584V369.568H622.276V378ZM625.701 375.968C626.021 375.968 626.288 376.075 626.501 376.288C626.714 376.501 626.821 376.763 626.821 377.072C626.821 377.403 626.725 377.781 626.533 378.208L625.461 380.656H624.405L625.045 378C624.906 377.893 624.794 377.76 624.709 377.6C624.634 377.44 624.597 377.264 624.597 377.072C624.597 376.763 624.704 376.501 624.917 376.288C625.13 376.075 625.392 375.968 625.701 375.968ZM637.331 366.784C637.992 366.784 638.547 366.869 638.995 367.04C639.454 367.211 639.918 367.488 640.387 367.872L639.555 368.848C638.883 368.304 638.174 368.032 637.427 368.032C636.51 368.032 635.768 368.384 635.203 369.088C634.648 369.792 634.371 370.923 634.371 372.48C634.371 373.995 634.648 375.115 635.203 375.84C635.758 376.555 636.494 376.912 637.411 376.912C637.88 376.912 638.291 376.832 638.643 376.672C638.995 376.512 639.368 376.288 639.763 376L640.515 376.96C640.174 377.312 639.736 377.605 639.203 377.84C638.67 378.075 638.056 378.192 637.363 378.192C636.467 378.192 635.667 377.973 634.963 377.536C634.27 377.088 633.726 376.437 633.331 375.584C632.947 374.72 632.755 373.685 632.755 372.48C632.755 371.275 632.958 370.245 633.363 369.392C633.768 368.528 634.318 367.877 635.011 367.44C635.704 367.003 636.478 366.784 637.331 366.784ZM648.3 378L647.468 375.232H643.292L642.46 378H640.924L644.46 366.976H646.38L649.9 378H648.3ZM643.66 374H647.1L645.388 368.24L643.66 374Z" fill="white"/>
<path d="M398.41 310.976L396.17 322H394.218L392.186 312.768L390.138 322H388.234L385.994 310.976H387.482L389.258 320.672L391.386 310.976H393.002L395.178 320.672L397.018 310.976H398.41ZM406.544 317.536C406.544 317.781 406.534 318.032 406.512 318.288H401.136C401.2 319.216 401.435 319.899 401.84 320.336C402.246 320.773 402.768 320.992 403.408 320.992C403.814 320.992 404.187 320.933 404.528 320.816C404.87 320.699 405.227 320.512 405.6 320.256L406.24 321.136C405.344 321.84 404.363 322.192 403.296 322.192C402.123 322.192 401.206 321.808 400.544 321.04C399.894 320.272 399.568 319.216 399.568 317.872C399.568 316.997 399.707 316.224 399.984 315.552C400.272 314.869 400.678 314.336 401.2 313.952C401.734 313.568 402.358 313.376 403.072 313.376C404.192 313.376 405.051 313.744 405.648 314.48C406.246 315.216 406.544 316.235 406.544 317.536ZM405.088 317.104C405.088 316.272 404.923 315.637 404.592 315.2C404.262 314.763 403.766 314.544 403.104 314.544C401.899 314.544 401.243 315.429 401.136 317.2H405.088V317.104ZM411.183 313.376C411.759 313.376 412.276 313.456 412.735 313.616C413.194 313.776 413.631 314.016 414.047 314.336L413.423 315.264C413.039 315.019 412.671 314.837 412.319 314.72C411.978 314.603 411.615 314.544 411.231 314.544C410.751 314.544 410.372 314.645 410.095 314.848C409.818 315.04 409.679 315.307 409.679 315.648C409.679 315.989 409.807 316.256 410.063 316.448C410.33 316.64 410.804 316.827 411.487 317.008C412.426 317.243 413.124 317.563 413.583 317.968C414.052 318.373 414.287 318.928 414.287 319.632C414.287 320.464 413.962 321.099 413.311 321.536C412.671 321.973 411.887 322.192 410.959 322.192C409.679 322.192 408.618 321.824 407.775 321.088L408.559 320.192C409.274 320.736 410.063 321.008 410.927 321.008C411.482 321.008 411.919 320.896 412.239 320.672C412.57 320.437 412.735 320.123 412.735 319.728C412.735 319.44 412.676 319.211 412.559 319.04C412.442 318.859 412.239 318.704 411.951 318.576C411.663 318.437 411.242 318.293 410.687 318.144C409.791 317.909 409.14 317.595 408.735 317.2C408.34 316.805 408.143 316.304 408.143 315.696C408.143 315.259 408.271 314.864 408.527 314.512C408.794 314.149 409.156 313.872 409.615 313.68C410.084 313.477 410.607 313.376 411.183 313.376ZM420.62 321.616C420.065 322 419.436 322.192 418.732 322.192C418.017 322.192 417.457 321.989 417.052 321.584C416.657 321.168 416.46 320.571 416.46 319.792V314.704H414.988V313.568H416.46V311.664L417.932 311.488V313.568H419.932L419.772 314.704H417.932V319.728C417.932 320.165 418.006 320.485 418.156 320.688C418.316 320.88 418.577 320.976 418.94 320.976C419.27 320.976 419.644 320.864 420.06 320.64L420.62 321.616ZM429.179 310.784C429.915 310.784 430.545 310.891 431.067 311.104C431.59 311.307 432.097 311.627 432.587 312.064L431.755 312.992C431.339 312.661 430.929 312.421 430.523 312.272C430.129 312.112 429.702 312.032 429.243 312.032C428.667 312.032 428.193 312.165 427.819 312.432C427.446 312.699 427.259 313.088 427.259 313.6C427.259 313.92 427.323 314.192 427.451 314.416C427.579 314.629 427.814 314.827 428.155 315.008C428.507 315.189 429.014 315.381 429.675 315.584C430.369 315.797 430.945 316.027 431.403 316.272C431.862 316.517 432.23 316.859 432.507 317.296C432.795 317.723 432.939 318.267 432.939 318.928C432.939 319.568 432.779 320.133 432.459 320.624C432.15 321.115 431.697 321.499 431.099 321.776C430.513 322.053 429.814 322.192 429.003 322.192C427.478 322.192 426.23 321.717 425.259 320.768L426.091 319.84C426.539 320.203 426.993 320.48 427.451 320.672C427.91 320.853 428.422 320.944 428.987 320.944C429.67 320.944 430.235 320.779 430.683 320.448C431.131 320.107 431.355 319.616 431.355 318.976C431.355 318.613 431.286 318.315 431.147 318.08C431.009 317.835 430.769 317.616 430.427 317.424C430.097 317.232 429.611 317.04 428.971 316.848C427.841 316.507 427.014 316.096 426.491 315.616C425.969 315.136 425.707 314.485 425.707 313.664C425.707 313.109 425.851 312.613 426.139 312.176C426.438 311.739 426.849 311.397 427.371 311.152C427.905 310.907 428.507 310.784 429.179 310.784ZM439.066 313.376C439.834 313.376 440.431 313.605 440.858 314.064C441.295 314.523 441.514 315.152 441.514 315.952V322H440.042V316.16C440.042 315.563 439.925 315.141 439.69 314.896C439.466 314.651 439.135 314.528 438.698 314.528C438.261 314.528 437.871 314.656 437.53 314.912C437.189 315.168 436.869 315.531 436.57 316V322H435.098V310.192L436.57 310.032V314.736C437.231 313.829 438.063 313.376 439.066 313.376ZM447.641 313.376C448.825 313.376 449.742 313.771 450.393 314.56C451.054 315.349 451.385 316.421 451.385 317.776C451.385 318.651 451.236 319.424 450.937 320.096C450.638 320.757 450.206 321.275 449.641 321.648C449.076 322.011 448.404 322.192 447.625 322.192C446.441 322.192 445.518 321.797 444.857 321.008C444.196 320.219 443.865 319.147 443.865 317.792C443.865 316.917 444.014 316.149 444.313 315.488C444.612 314.816 445.044 314.299 445.609 313.936C446.174 313.563 446.852 313.376 447.641 313.376ZM447.641 314.56C446.18 314.56 445.449 315.637 445.449 317.792C445.449 319.936 446.174 321.008 447.625 321.008C449.076 321.008 449.801 319.931 449.801 317.776C449.801 315.632 449.081 314.56 447.641 314.56ZM457.481 313.376C457.78 313.376 458.057 313.408 458.313 313.472L458.041 314.912C457.785 314.848 457.54 314.816 457.305 314.816C456.782 314.816 456.361 315.008 456.041 315.392C455.721 315.776 455.47 316.373 455.289 317.184V322H453.817V313.568H455.081L455.225 315.28C455.449 314.651 455.753 314.176 456.137 313.856C456.521 313.536 456.969 313.376 457.481 313.376ZM465.872 317.536C465.872 317.781 465.862 318.032 465.84 318.288H460.464C460.528 319.216 460.763 319.899 461.168 320.336C461.574 320.773 462.096 320.992 462.736 320.992C463.142 320.992 463.515 320.933 463.856 320.816C464.198 320.699 464.555 320.512 464.928 320.256L465.568 321.136C464.672 321.84 463.691 322.192 462.624 322.192C461.451 322.192 460.534 321.808 459.872 321.04C459.222 320.272 458.896 319.216 458.896 317.872C458.896 316.997 459.035 316.224 459.312 315.552C459.6 314.869 460.006 314.336 460.528 313.952C461.062 313.568 461.686 313.376 462.4 313.376C463.52 313.376 464.379 313.744 464.976 314.48C465.574 315.216 465.872 316.235 465.872 317.536ZM464.416 317.104C464.416 316.272 464.251 315.637 463.92 315.2C463.59 314.763 463.094 314.544 462.432 314.544C461.227 314.544 460.571 315.429 460.464 317.2H464.416V317.104ZM474.41 309.184V323.568H474.058V309.184H474.41ZM493.237 322H491.765L491.381 317.024C491.221 315.072 491.131 313.573 491.109 312.528L488.725 320.752H487.301L484.789 312.512C484.789 313.845 484.72 315.387 484.581 317.136L484.213 322H482.773L483.685 310.976H485.733L488.053 318.992L490.261 310.976H492.325L493.237 322ZM501.434 320.032C501.434 320.373 501.493 320.629 501.61 320.8C501.728 320.96 501.904 321.083 502.138 321.168L501.802 322.192C501.365 322.139 501.013 322.016 500.746 321.824C500.48 321.632 500.282 321.333 500.154 320.928C499.589 321.771 498.752 322.192 497.642 322.192C496.81 322.192 496.154 321.957 495.674 321.488C495.194 321.019 494.954 320.405 494.954 319.648C494.954 318.752 495.274 318.064 495.914 317.584C496.565 317.104 497.482 316.864 498.666 316.864H499.962V316.24C499.962 315.643 499.818 315.216 499.53 314.96C499.242 314.704 498.8 314.576 498.202 314.576C497.584 314.576 496.826 314.725 495.93 315.024L495.562 313.952C496.608 313.568 497.578 313.376 498.474 313.376C499.466 313.376 500.208 313.621 500.698 314.112C501.189 314.592 501.434 315.28 501.434 316.176V320.032ZM497.978 321.088C498.821 321.088 499.482 320.651 499.962 319.776V317.84H498.858C497.301 317.84 496.522 318.416 496.522 319.568C496.522 320.069 496.645 320.448 496.89 320.704C497.136 320.96 497.498 321.088 497.978 321.088ZM505.981 322.192C505.437 322.192 505.005 322.032 504.685 321.712C504.376 321.381 504.221 320.923 504.221 320.336V310.176L505.693 310V320.304C505.693 320.539 505.731 320.709 505.805 320.816C505.891 320.923 506.029 320.976 506.221 320.976C506.424 320.976 506.605 320.944 506.765 320.88L507.149 321.904C506.797 322.096 506.408 322.192 505.981 322.192ZM510.461 313.568V322H508.989V313.568H510.461ZM509.709 309.52C510.018 309.52 510.269 309.616 510.461 309.808C510.653 310 510.749 310.24 510.749 310.528C510.749 310.816 510.653 311.056 510.461 311.248C510.269 311.429 510.018 311.52 509.709 311.52C509.41 311.52 509.165 311.429 508.973 311.248C508.781 311.056 508.685 310.816 508.685 310.528C508.685 310.24 508.781 310 508.973 309.808C509.165 309.616 509.41 309.52 509.709 309.52ZM517.36 313.376C518.32 313.376 519.083 313.765 519.648 314.544C520.214 315.312 520.496 316.389 520.496 317.776C520.496 318.651 520.363 319.424 520.096 320.096C519.83 320.757 519.446 321.275 518.944 321.648C518.443 322.011 517.856 322.192 517.184 322.192C516.299 322.192 515.552 321.819 514.944 321.072L514.8 322H513.504V310.176L514.976 310V314.624C515.584 313.792 516.379 313.376 517.36 313.376ZM516.832 321.024C517.483 321.024 517.99 320.763 518.352 320.24C518.726 319.707 518.912 318.885 518.912 317.776C518.912 316.635 518.742 315.813 518.4 315.312C518.059 314.8 517.574 314.544 516.944 314.544C516.198 314.544 515.542 314.981 514.976 315.856V319.888C515.2 320.24 515.472 320.517 515.792 320.72C516.123 320.923 516.47 321.024 516.832 321.024ZM529.276 322H528.012L527.9 320.688C527.58 321.211 527.212 321.595 526.796 321.84C526.38 322.075 525.874 322.192 525.276 322.192C524.54 322.192 523.964 321.968 523.548 321.52C523.132 321.072 522.924 320.437 522.924 319.616V313.568H524.396V319.456C524.396 320.032 524.498 320.443 524.7 320.688C524.903 320.923 525.234 321.04 525.692 321.04C526.514 321.04 527.218 320.555 527.804 319.584V313.568H529.276V322ZM532.701 319.968C533.021 319.968 533.288 320.075 533.501 320.288C533.714 320.501 533.821 320.763 533.821 321.072C533.821 321.403 533.725 321.781 533.533 322.208L532.461 324.656H531.405L532.045 322C531.906 321.893 531.794 321.76 531.709 321.6C531.634 321.44 531.597 321.264 531.597 321.072C531.597 320.763 531.704 320.501 531.917 320.288C532.13 320.075 532.392 319.968 532.701 319.968ZM544.331 310.784C544.992 310.784 545.547 310.869 545.995 311.04C546.454 311.211 546.918 311.488 547.387 311.872L546.555 312.848C545.883 312.304 545.174 312.032 544.427 312.032C543.51 312.032 542.768 312.384 542.203 313.088C541.648 313.792 541.371 314.923 541.371 316.48C541.371 317.995 541.648 319.115 542.203 319.84C542.758 320.555 543.494 320.912 544.411 320.912C544.88 320.912 545.291 320.832 545.643 320.672C545.995 320.512 546.368 320.288 546.763 320L547.515 320.96C547.174 321.312 546.736 321.605 546.203 321.84C545.67 322.075 545.056 322.192 544.363 322.192C543.467 322.192 542.667 321.973 541.963 321.536C541.27 321.088 540.726 320.437 540.331 319.584C539.947 318.72 539.755 317.685 539.755 316.48C539.755 315.275 539.958 314.245 540.363 313.392C540.768 312.528 541.318 311.877 542.011 311.44C542.704 311.003 543.478 310.784 544.331 310.784ZM555.3 322L554.468 319.232H550.292L549.46 322H547.924L551.46 310.976H553.38L556.9 322H555.3ZM550.66 318H554.1L552.388 312.24L550.66 318Z" fill="white"/>
<path d="M190.359 216H188.327L183.847 206.64C183.911 207.376 183.959 208.059 183.991 208.688C184.034 209.307 184.055 210.059 184.055 210.944V216H182.631V204.976H184.615L189.143 214.352C189.111 214.075 189.069 213.589 189.015 212.896C188.962 212.203 188.935 211.568 188.935 210.992V204.976H190.359V216ZM196.641 207.376C197.825 207.376 198.742 207.771 199.393 208.56C200.054 209.349 200.385 210.421 200.385 211.776C200.385 212.651 200.236 213.424 199.937 214.096C199.638 214.757 199.206 215.275 198.641 215.648C198.076 216.011 197.404 216.192 196.625 216.192C195.441 216.192 194.518 215.797 193.857 215.008C193.196 214.219 192.865 213.147 192.865 211.792C192.865 210.917 193.014 210.149 193.313 209.488C193.612 208.816 194.044 208.299 194.609 207.936C195.174 207.563 195.852 207.376 196.641 207.376ZM196.641 208.56C195.18 208.56 194.449 209.637 194.449 211.792C194.449 213.936 195.174 215.008 196.625 215.008C198.076 215.008 198.801 213.931 198.801 211.776C198.801 209.632 198.081 208.56 196.641 208.56ZM206.481 207.376C206.78 207.376 207.057 207.408 207.313 207.472L207.041 208.912C206.785 208.848 206.54 208.816 206.305 208.816C205.782 208.816 205.361 209.008 205.041 209.392C204.721 209.776 204.47 210.373 204.289 211.184V216H202.817V207.568H204.081L204.225 209.28C204.449 208.651 204.753 208.176 205.137 207.856C205.521 207.536 205.969 207.376 206.481 207.376ZM213.245 215.616C212.69 216 212.061 216.192 211.357 216.192C210.642 216.192 210.082 215.989 209.677 215.584C209.282 215.168 209.085 214.571 209.085 213.792V208.704H207.613V207.568H209.085V205.664L210.557 205.488V207.568H212.557L212.397 208.704H210.557V213.728C210.557 214.165 210.631 214.485 210.781 214.688C210.941 214.88 211.202 214.976 211.565 214.976C211.895 214.976 212.269 214.864 212.685 214.64L213.245 215.616ZM218.738 207.376C219.506 207.376 220.103 207.605 220.53 208.064C220.967 208.523 221.186 209.152 221.186 209.952V216H219.714V210.16C219.714 209.563 219.597 209.141 219.362 208.896C219.138 208.651 218.807 208.528 218.37 208.528C217.933 208.528 217.543 208.656 217.202 208.912C216.861 209.168 216.541 209.531 216.242 210V216H214.77V204.192L216.242 204.032V208.736C216.903 207.829 217.735 207.376 218.738 207.376ZM231.179 204.784C231.915 204.784 232.545 204.891 233.067 205.104C233.59 205.307 234.097 205.627 234.587 206.064L233.755 206.992C233.339 206.661 232.929 206.421 232.523 206.272C232.129 206.112 231.702 206.032 231.243 206.032C230.667 206.032 230.193 206.165 229.819 206.432C229.446 206.699 229.259 207.088 229.259 207.6C229.259 207.92 229.323 208.192 229.451 208.416C229.579 208.629 229.814 208.827 230.155 209.008C230.507 209.189 231.014 209.381 231.675 209.584C232.369 209.797 232.945 210.027 233.403 210.272C233.862 210.517 234.23 210.859 234.507 211.296C234.795 211.723 234.939 212.267 234.939 212.928C234.939 213.568 234.779 214.133 234.459 214.624C234.15 215.115 233.697 215.499 233.099 215.776C232.513 216.053 231.814 216.192 231.003 216.192C229.478 216.192 228.23 215.717 227.259 214.768L228.091 213.84C228.539 214.203 228.993 214.48 229.451 214.672C229.91 214.853 230.422 214.944 230.987 214.944C231.67 214.944 232.235 214.779 232.683 214.448C233.131 214.107 233.355 213.616 233.355 212.976C233.355 212.613 233.286 212.315 233.147 212.08C233.009 211.835 232.769 211.616 232.427 211.424C232.097 211.232 231.611 211.04 230.971 210.848C229.841 210.507 229.014 210.096 228.491 209.616C227.969 209.136 227.707 208.485 227.707 207.664C227.707 207.109 227.851 206.613 228.139 206.176C228.438 205.739 228.849 205.397 229.371 205.152C229.905 204.907 230.507 204.784 231.179 204.784ZM241.066 207.376C241.834 207.376 242.431 207.605 242.858 208.064C243.295 208.523 243.514 209.152 243.514 209.952V216H242.042V210.16C242.042 209.563 241.925 209.141 241.69 208.896C241.466 208.651 241.135 208.528 240.698 208.528C240.261 208.528 239.871 208.656 239.53 208.912C239.189 209.168 238.869 209.531 238.57 210V216H237.098V204.192L238.57 204.032V208.736C239.231 207.829 240.063 207.376 241.066 207.376ZM249.641 207.376C250.825 207.376 251.742 207.771 252.393 208.56C253.054 209.349 253.385 210.421 253.385 211.776C253.385 212.651 253.236 213.424 252.937 214.096C252.638 214.757 252.206 215.275 251.641 215.648C251.076 216.011 250.404 216.192 249.625 216.192C248.441 216.192 247.518 215.797 246.857 215.008C246.196 214.219 245.865 213.147 245.865 211.792C245.865 210.917 246.014 210.149 246.313 209.488C246.612 208.816 247.044 208.299 247.609 207.936C248.174 207.563 248.852 207.376 249.641 207.376ZM249.641 208.56C248.18 208.56 247.449 209.637 247.449 211.792C247.449 213.936 248.174 215.008 249.625 215.008C251.076 215.008 251.801 213.931 251.801 211.776C251.801 209.632 251.081 208.56 249.641 208.56ZM259.481 207.376C259.78 207.376 260.057 207.408 260.313 207.472L260.041 208.912C259.785 208.848 259.54 208.816 259.305 208.816C258.782 208.816 258.361 209.008 258.041 209.392C257.721 209.776 257.47 210.373 257.289 211.184V216H255.817V207.568H257.081L257.225 209.28C257.449 208.651 257.753 208.176 258.137 207.856C258.521 207.536 258.969 207.376 259.481 207.376ZM267.872 211.536C267.872 211.781 267.862 212.032 267.84 212.288H262.464C262.528 213.216 262.763 213.899 263.168 214.336C263.574 214.773 264.096 214.992 264.736 214.992C265.142 214.992 265.515 214.933 265.856 214.816C266.198 214.699 266.555 214.512 266.928 214.256L267.568 215.136C266.672 215.84 265.691 216.192 264.624 216.192C263.451 216.192 262.534 215.808 261.872 215.04C261.222 214.272 260.896 213.216 260.896 211.872C260.896 210.997 261.035 210.224 261.312 209.552C261.6 208.869 262.006 208.336 262.528 207.952C263.062 207.568 263.686 207.376 264.4 207.376C265.52 207.376 266.379 207.744 266.976 208.48C267.574 209.216 267.872 210.235 267.872 211.536ZM266.416 211.104C266.416 210.272 266.251 209.637 265.92 209.2C265.59 208.763 265.094 208.544 264.432 208.544C263.227 208.544 262.571 209.429 262.464 211.2H266.416V211.104ZM276.41 203.184V217.568H276.058V203.184H276.41ZM295.237 216H293.765L293.381 211.024C293.221 209.072 293.131 207.573 293.109 206.528L290.725 214.752H289.301L286.789 206.512C286.789 207.845 286.72 209.387 286.581 211.136L286.213 216H284.773L285.685 204.976H287.733L290.053 212.992L292.261 204.976H294.325L295.237 216ZM303.434 214.032C303.434 214.373 303.493 214.629 303.61 214.8C303.728 214.96 303.904 215.083 304.138 215.168L303.802 216.192C303.365 216.139 303.013 216.016 302.746 215.824C302.48 215.632 302.282 215.333 302.154 214.928C301.589 215.771 300.752 216.192 299.642 216.192C298.81 216.192 298.154 215.957 297.674 215.488C297.194 215.019 296.954 214.405 296.954 213.648C296.954 212.752 297.274 212.064 297.914 211.584C298.565 211.104 299.482 210.864 300.666 210.864H301.962V210.24C301.962 209.643 301.818 209.216 301.53 208.96C301.242 208.704 300.8 208.576 300.202 208.576C299.584 208.576 298.826 208.725 297.93 209.024L297.562 207.952C298.608 207.568 299.578 207.376 300.474 207.376C301.466 207.376 302.208 207.621 302.698 208.112C303.189 208.592 303.434 209.28 303.434 210.176V214.032ZM299.978 215.088C300.821 215.088 301.482 214.651 301.962 213.776V211.84H300.858C299.301 211.84 298.522 212.416 298.522 213.568C298.522 214.069 298.645 214.448 298.89 214.704C299.136 214.96 299.498 215.088 299.978 215.088ZM307.981 216.192C307.437 216.192 307.005 216.032 306.685 215.712C306.376 215.381 306.221 214.923 306.221 214.336V204.176L307.693 204V214.304C307.693 214.539 307.731 214.709 307.805 214.816C307.891 214.923 308.029 214.976 308.221 214.976C308.424 214.976 308.605 214.944 308.765 214.88L309.149 215.904C308.797 216.096 308.408 216.192 307.981 216.192ZM312.461 207.568V216H310.989V207.568H312.461ZM311.709 203.52C312.018 203.52 312.269 203.616 312.461 203.808C312.653 204 312.749 204.24 312.749 204.528C312.749 204.816 312.653 205.056 312.461 205.248C312.269 205.429 312.018 205.52 311.709 205.52C311.41 205.52 311.165 205.429 310.973 205.248C310.781 205.056 310.685 204.816 310.685 204.528C310.685 204.24 310.781 204 310.973 203.808C311.165 203.616 311.41 203.52 311.709 203.52ZM319.36 207.376C320.32 207.376 321.083 207.765 321.648 208.544C322.214 209.312 322.496 210.389 322.496 211.776C322.496 212.651 322.363 213.424 322.096 214.096C321.83 214.757 321.446 215.275 320.944 215.648C320.443 216.011 319.856 216.192 319.184 216.192C318.299 216.192 317.552 215.819 316.944 215.072L316.8 216H315.504V204.176L316.976 204V208.624C317.584 207.792 318.379 207.376 319.36 207.376ZM318.832 215.024C319.483 215.024 319.99 214.763 320.352 214.24C320.726 213.707 320.912 212.885 320.912 211.776C320.912 210.635 320.742 209.813 320.4 209.312C320.059 208.8 319.574 208.544 318.944 208.544C318.198 208.544 317.542 208.981 316.976 209.856V213.888C317.2 214.24 317.472 214.517 317.792 214.72C318.123 214.923 318.47 215.024 318.832 215.024ZM331.276 216H330.012L329.9 214.688C329.58 215.211 329.212 215.595 328.796 215.84C328.38 216.075 327.874 216.192 327.276 216.192C326.54 216.192 325.964 215.968 325.548 215.52C325.132 215.072 324.924 214.437 324.924 213.616V207.568H326.396V213.456C326.396 214.032 326.498 214.443 326.7 214.688C326.903 214.923 327.234 215.04 327.692 215.04C328.514 215.04 329.218 214.555 329.804 213.584V207.568H331.276V216ZM334.701 213.968C335.021 213.968 335.288 214.075 335.501 214.288C335.714 214.501 335.821 214.763 335.821 215.072C335.821 215.403 335.725 215.781 335.533 216.208L334.461 218.656H333.405L334.045 216C333.906 215.893 333.794 215.76 333.709 215.6C333.634 215.44 333.597 215.264 333.597 215.072C333.597 214.763 333.704 214.501 333.917 214.288C334.13 214.075 334.392 213.968 334.701 213.968ZM346.331 204.784C346.992 204.784 347.547 204.869 347.995 205.04C348.454 205.211 348.918 205.488 349.387 205.872L348.555 206.848C347.883 206.304 347.174 206.032 346.427 206.032C345.51 206.032 344.768 206.384 344.203 207.088C343.648 207.792 343.371 208.923 343.371 210.48C343.371 211.995 343.648 213.115 344.203 213.84C344.758 214.555 345.494 214.912 346.411 214.912C346.88 214.912 347.291 214.832 347.643 214.672C347.995 214.512 348.368 214.288 348.763 214L349.515 214.96C349.174 215.312 348.736 215.605 348.203 215.84C347.67 216.075 347.056 216.192 346.363 216.192C345.467 216.192 344.667 215.973 343.963 215.536C343.27 215.088 342.726 214.437 342.331 213.584C341.947 212.72 341.755 211.685 341.755 210.48C341.755 209.275 341.958 208.245 342.363 207.392C342.768 206.528 343.318 205.877 344.011 205.44C344.704 205.003 345.478 204.784 346.331 204.784ZM357.3 216L356.468 213.232H352.292L351.46 216H349.924L353.46 204.976H355.38L358.9 216H357.3ZM352.66 212H356.1L354.388 206.24L352.66 212Z" fill="white"/>
<path d="M598.378 75.784C599.039 75.784 599.594 75.8693 600.042 76.04C600.501 76.2107 600.965 76.488 601.434 76.872L600.602 77.848C599.93 77.304 599.221 77.032 598.474 77.032C597.557 77.032 596.815 77.384 596.25 78.088C595.695 78.792 595.418 79.9227 595.418 81.48C595.418 82.9947 595.695 84.1147 596.25 84.84C596.805 85.5547 597.541 85.912 598.458 85.912C598.927 85.912 599.338 85.832 599.69 85.672C600.042 85.512 600.415 85.288 600.81 85L601.562 85.96C601.221 86.312 600.783 86.6053 600.25 86.84C599.717 87.0747 599.103 87.192 598.41 87.192C597.514 87.192 596.714 86.9733 596.01 86.536C595.317 86.088 594.773 85.4373 594.378 84.584C593.994 83.72 593.802 82.6853 593.802 81.48C593.802 80.2747 594.005 79.2453 594.41 78.392C594.815 77.528 595.365 76.8773 596.058 76.44C596.751 76.0027 597.525 75.784 598.378 75.784ZM609.401 87H608.137L608.025 85.688C607.705 86.2107 607.337 86.5947 606.921 86.84C606.505 87.0747 605.999 87.192 605.401 87.192C604.665 87.192 604.089 86.968 603.673 86.52C603.257 86.072 603.049 85.4373 603.049 84.616V78.568H604.521V84.456C604.521 85.032 604.623 85.4427 604.825 85.688C605.028 85.9227 605.359 86.04 605.817 86.04C606.639 86.04 607.343 85.5547 607.929 84.584V78.568H609.401V87ZM616.106 78.376C616.405 78.376 616.682 78.408 616.938 78.472L616.666 79.912C616.41 79.848 616.165 79.816 615.93 79.816C615.407 79.816 614.986 80.008 614.666 80.392C614.346 80.776 614.095 81.3733 613.914 82.184V87H612.442V78.568H613.706L613.85 80.28C614.074 79.6507 614.378 79.176 614.762 78.856C615.146 78.536 615.594 78.376 616.106 78.376ZM622.278 78.376C622.576 78.376 622.854 78.408 623.11 78.472L622.838 79.912C622.582 79.848 622.336 79.816 622.102 79.816C621.579 79.816 621.158 80.008 620.838 80.392C620.518 80.776 620.267 81.3733 620.086 82.184V87H618.614V78.568H619.878L620.022 80.28C620.246 79.6507 620.55 79.176 620.934 78.856C621.318 78.536 621.766 78.376 622.278 78.376ZM630.669 82.536C630.669 82.7813 630.659 83.032 630.637 83.288H625.261C625.325 84.216 625.56 84.8987 625.965 85.336C626.371 85.7733 626.893 85.992 627.533 85.992C627.939 85.992 628.312 85.9333 628.653 85.816C628.995 85.6987 629.352 85.512 629.725 85.256L630.365 86.136C629.469 86.84 628.488 87.192 627.421 87.192C626.248 87.192 625.331 86.808 624.669 86.04C624.019 85.272 623.693 84.216 623.693 82.872C623.693 81.9973 623.832 81.224 624.109 80.552C624.397 79.8693 624.803 79.336 625.325 78.952C625.859 78.568 626.483 78.376 627.197 78.376C628.317 78.376 629.176 78.744 629.773 79.48C630.371 80.216 630.669 81.2347 630.669 82.536ZM629.213 82.104C629.213 81.272 629.048 80.6373 628.717 80.2C628.387 79.7627 627.891 79.544 627.229 79.544C626.024 79.544 625.368 80.4293 625.261 82.2H629.213V82.104ZM636.988 78.376C637.756 78.376 638.353 78.6053 638.78 79.064C639.217 79.5227 639.436 80.152 639.436 80.952V87H637.964V81.16C637.964 80.5627 637.852 80.1413 637.628 79.896C637.404 79.6507 637.073 79.528 636.636 79.528C636.188 79.528 635.793 79.656 635.452 79.912C635.111 80.168 634.791 80.536 634.492 81.016V87H633.02V78.568H634.284L634.412 79.816C634.711 79.368 635.079 79.016 635.516 78.76C635.964 78.504 636.455 78.376 636.988 78.376ZM646.651 86.616C646.096 87 645.467 87.192 644.763 87.192C644.048 87.192 643.488 86.9893 643.083 86.584C642.688 86.168 642.491 85.5707 642.491 84.792V79.704H641.019V78.568H642.491V76.664L643.963 76.488V78.568H645.963L645.803 79.704H643.963V84.728C643.963 85.1653 644.038 85.4853 644.187 85.688C644.347 85.88 644.608 85.976 644.971 85.976C645.302 85.976 645.675 85.864 646.091 85.64L646.651 86.616ZM654.011 75.976V85.672H658.539L658.363 87H652.491V75.976H654.011ZM663.141 78.376C664.325 78.376 665.242 78.7707 665.893 79.56C666.554 80.3493 666.885 81.4213 666.885 82.776C666.885 83.6507 666.736 84.424 666.437 85.096C666.138 85.7573 665.706 86.2747 665.141 86.648C664.576 87.0107 663.904 87.192 663.125 87.192C661.941 87.192 661.018 86.7973 660.357 86.008C659.696 85.2187 659.365 84.1467 659.365 82.792C659.365 81.9173 659.514 81.1493 659.813 80.488C660.112 79.816 660.544 79.2987 661.109 78.936C661.674 78.5627 662.352 78.376 663.141 78.376ZM663.141 79.56C661.68 79.56 660.949 80.6373 660.949 82.792C660.949 84.936 661.674 86.008 663.125 86.008C664.576 86.008 665.301 84.9307 665.301 82.776C665.301 80.632 664.581 79.56 663.141 79.56ZM672.389 78.376C672.89 78.376 673.349 78.4507 673.765 78.6C674.181 78.7387 674.581 78.968 674.965 79.288L674.261 80.216C673.962 80.0027 673.669 79.848 673.381 79.752C673.104 79.6453 672.794 79.592 672.453 79.592C671.77 79.592 671.237 79.864 670.853 80.408C670.48 80.952 670.293 81.7573 670.293 82.824C670.293 83.8907 670.48 84.68 670.853 85.192C671.226 85.6933 671.76 85.944 672.453 85.944C672.784 85.944 673.088 85.896 673.365 85.8C673.642 85.6933 673.952 85.528 674.293 85.304L674.965 86.264C674.197 86.8827 673.338 87.192 672.389 87.192C671.248 87.192 670.346 86.808 669.685 86.04C669.034 85.272 668.709 84.2107 668.709 82.856C668.709 81.96 668.858 81.176 669.157 80.504C669.456 79.832 669.877 79.3093 670.421 78.936C670.976 78.5627 671.632 78.376 672.389 78.376ZM682.481 85.032C682.481 85.3733 682.54 85.6293 682.657 85.8C682.775 85.96 682.951 86.0827 683.185 86.168L682.849 87.192C682.412 87.1387 682.06 87.016 681.793 86.824C681.527 86.632 681.329 86.3333 681.201 85.928C680.636 86.7707 679.799 87.192 678.689 87.192C677.857 87.192 677.201 86.9573 676.721 86.488C676.241 86.0187 676.001 85.4053 676.001 84.648C676.001 83.752 676.321 83.064 676.961 82.584C677.612 82.104 678.529 81.864 679.713 81.864H681.009V81.24C681.009 80.6427 680.865 80.216 680.577 79.96C680.289 79.704 679.847 79.576 679.249 79.576C678.631 79.576 677.873 79.7253 676.977 80.024L676.609 78.952C677.655 78.568 678.625 78.376 679.521 78.376C680.513 78.376 681.255 78.6213 681.745 79.112C682.236 79.592 682.481 80.28 682.481 81.176V85.032ZM679.025 86.088C679.868 86.088 680.529 85.6507 681.009 84.776V82.84H679.905C678.348 82.84 677.569 83.416 677.569 84.568C677.569 85.0693 677.692 85.448 677.937 85.704C678.183 85.96 678.545 86.088 679.025 86.088ZM689.76 86.616C689.206 87 688.576 87.192 687.872 87.192C687.158 87.192 686.598 86.9893 686.192 86.584C685.798 86.168 685.6 85.5707 685.6 84.792V79.704H684.128V78.568H685.6V76.664L687.072 76.488V78.568H689.072L688.912 79.704H687.072V84.728C687.072 85.1653 687.147 85.4853 687.296 85.688C687.456 85.88 687.718 85.976 688.08 85.976C688.411 85.976 688.784 85.864 689.2 85.64L689.76 86.616ZM692.758 78.568V87H691.286V78.568H692.758ZM692.006 74.52C692.315 74.52 692.566 74.616 692.758 74.808C692.95 75 693.046 75.24 693.046 75.528C693.046 75.816 692.95 76.056 692.758 76.248C692.566 76.4293 692.315 76.52 692.006 76.52C691.707 76.52 691.462 76.4293 691.27 76.248C691.078 76.056 690.982 75.816 690.982 75.528C690.982 75.24 691.078 75 691.27 74.808C691.462 74.616 691.707 74.52 692.006 74.52ZM698.969 78.376C700.153 78.376 701.071 78.7707 701.721 79.56C702.383 80.3493 702.713 81.4213 702.713 82.776C702.713 83.6507 702.564 84.424 702.265 85.096C701.967 85.7573 701.535 86.2747 700.969 86.648C700.404 87.0107 699.732 87.192 698.953 87.192C697.769 87.192 696.847 86.7973 696.185 86.008C695.524 85.2187 695.193 84.1467 695.193 82.792C695.193 81.9173 695.343 81.1493 695.641 80.488C695.94 79.816 696.372 79.2987 696.937 78.936C697.503 78.5627 698.18 78.376 698.969 78.376ZM698.969 79.56C697.508 79.56 696.777 80.6373 696.777 82.792C696.777 84.936 697.503 86.008 698.953 86.008C700.404 86.008 701.129 84.9307 701.129 82.776C701.129 80.632 700.409 79.56 698.969 79.56ZM709.113 78.376C709.881 78.376 710.478 78.6053 710.905 79.064C711.342 79.5227 711.561 80.152 711.561 80.952V87H710.089V81.16C710.089 80.5627 709.977 80.1413 709.753 79.896C709.529 79.6507 709.198 79.528 708.761 79.528C708.313 79.528 707.918 79.656 707.577 79.912C707.236 80.168 706.916 80.536 706.617 81.016V87H705.145V78.568H706.409L706.537 79.816C706.836 79.368 707.204 79.016 707.641 78.76C708.089 78.504 708.58 78.376 709.113 78.376Z" fill="white"/>
<defs>
<filter id="filter0_dd" x="563" y="313" width="21" height="21" filterUnits="userSpaceOnUse" color-interpolation-filters="sRGB">
<feFlood flood-opacity="0" result="BackgroundImageFix"/>
<feColorMatrix in="SourceAlpha" type="matrix" values="0 0 0 0 0 0 0 0 0 0 0 0 0 0 0 0 0 0 127 0"/>
<feOffset dy="4"/>
<feGaussianBlur stdDeviation="2"/>
<feColorMatrix type="matrix" values="0 0 0 0 0 0 0 0 0 0 0 0 0 0 0 0 0 0 0.25 0"/>
<feBlend mode="normal" in2="BackgroundImageFix" result="effect1_dropShadow"/>
<feColorMatrix in="SourceAlpha" type="matrix" values="0 0 0 0 0 0 0 0 0 0 0 0 0 0 0 0 0 0 127 0"/>
<feOffset dy="4"/>
<feGaussianBlur stdDeviation="2"/>
<feColorMatrix type="matrix" values="0 0 0 0 0 0 0 0 0 0 0 0 0 0 0 0 0 0 0.25 0"/>
<feBlend mode="normal" in2="effect1_dropShadow" result="effect2_dropShadow"/>
<feBlend mode="normal" in="SourceGraphic" in2="effect2_dropShadow" result="shape"/>
</filter>
</defs>
</svg>
